<svg width="81" height="24" viewBox="0 0 81 24" fill="none" xmlns="http://www.w3.org/2000/svg">
<path d="M10.1497 1.76007H14.0197L23.2597 23.0001H17.9797L16.1497 18.5001H7.89973L6.12973 23.0001H0.969727L10.1497 1.76007ZM11.9497 7.94007L9.36973 14.5401H14.5597L11.9497 7.94007Z" fill="#303920"/>
<path d="M24.8861 0.320068H29.3861V23.0001H24.8861V0.320068Z" fill="#303920"/>
<path d="M32.679 8.42007H37.179V23.0001H32.679V8.42007ZM32.319 3.83007C32.319 3.11007 32.569 2.50007 33.069 2.00007C33.589 1.48007 34.209 1.22007 34.929 1.22007C35.649 1.22007 36.259 1.48007 36.759 2.00007C37.279 2.50007 37.539 3.11007 37.539 3.83007C37.539 4.55007 37.279 5.17007 36.759 5.69007C36.259 6.19007 35.649 6.44007 34.929 6.44007C34.209 6.44007 33.589 6.19007 33.069 5.69007C32.569 5.17007 32.319 4.55007 32.319 3.83007Z" fill="#303920"/>
<path d="M38.882 8.42007H43.742L47.432 18.3201H47.492L50.912 8.42007H55.442L49.682 23.0001H44.912L38.882 8.42007Z" fill="#303920"/>
<path d="M57.1419 8.42007H61.6419V23.0001H57.1419V8.42007ZM56.7819 3.83007C56.7819 3.11007 57.0319 2.50007 57.5319 2.00007C58.0519 1.48007 58.6719 1.22007 59.3919 1.22007C60.1119 1.22007 60.7219 1.48007 61.2219 2.00007C61.7419 2.50007 62.0019 3.11007 62.0019 3.83007C62.0019 4.55007 61.7419 5.17007 61.2219 5.69007C60.7219 6.19007 60.1119 6.44007 59.3919 6.44007C58.6719 6.44007 58.0519 6.19007 57.5319 5.69007C57.0319 5.17007 56.7819 4.55007 56.7819 3.83007Z" fill="#303920"/>
<path d="M64.3349 15.7101C64.3349 14.5501 64.5449 13.5001 64.9649 12.5601C65.3849 11.6201 65.9549 10.8201 66.6749 10.1601C67.4149 9.48007 68.2749 8.96007 69.2549 8.60007C70.2549 8.24007 71.3149 8.06007 72.4349 8.06007C73.5549 8.06007 74.6049 8.24007 75.5849 8.60007C76.5849 8.96007 77.4449 9.48007 78.1649 10.1601C78.9049 10.8201 79.4849 11.6201 79.9049 12.5601C80.3249 13.5001 80.5349 14.5501 80.5349 15.7101C80.5349 16.8701 80.3249 17.9201 79.9049 18.8601C79.4849 19.8001 78.9049 20.6101 78.1649 21.2901C77.4449 21.9501 76.5849 22.4601 75.5849 22.8201C74.6049 23.1801 73.5549 23.3601 72.4349 23.3601C71.3149 23.3601 70.2549 23.1801 69.2549 22.8201C68.2749 22.4601 67.4149 21.9501 66.6749 21.2901C65.9549 20.6101 65.3849 19.8001 64.9649 18.8601C64.5449 17.9201 64.3349 16.8701 64.3349 15.7101ZM68.8349 15.7101C68.8349 16.8101 69.1449 17.7001 69.7649 18.3801C70.4049 19.0601 71.2949 19.4001 72.4349 19.4001C73.5749 19.4001 74.4549 19.0601 75.0749 18.3801C75.7149 17.7001 76.0349 16.8101 76.0349 15.7101C76.0349 14.6101 75.7149 13.7201 75.0749 13.0401C74.4549 12.3601 73.5749 12.0201 72.4349 12.0201C71.2949 12.0201 70.4049 12.3601 69.7649 13.0401C69.1449 13.7201 68.8349 14.6101 68.8349 15.7101Z" fill="#303920"/>
</svg>
